<svg width="30" height="14" viewBox="0 0 30 14" fill="none" xmlns="http://www.w3.org/2000/svg">
<path d="M5.22269 6.52602L5.49461 9.57337L5.22269 12.7754C5.20862 12.8926 5.11955 12.9817 5.01641 12.9817C4.91327 12.9817 4.8195 12.8926 4.8195 12.7754L4.55696 9.57337L4.8195 6.52602C4.8195 6.42288 4.90858 6.32911 5.01641 6.32911C5.11955 6.32911 5.20862 6.42288 5.22269 6.52602ZM6.22597 4.38818C6.0947 4.38818 6.00562 4.49133 5.99156 4.6226L5.75715 9.57337L5.99156 12.7754C6.00562 12.9067 6.0947 13.0098 6.22597 13.0098C6.34318 13.0098 6.44632 12.9067 6.44632 12.7754L6.71824 9.57337L6.44632 4.6226C6.44632 4.49133 6.34318 4.38818 6.22597 4.38818ZM7.42147 3.25832C7.27613 3.25832 7.17299 3.36146 7.15893 3.5068L6.95265 9.6015L7.15893 12.7801C7.17299 12.9255 7.27613 13.0286 7.42147 13.0286C7.55274 13.0286 7.66995 12.9255 7.66995 12.7801L7.91842 9.6015L7.66995 3.5068C7.66995 3.36146 7.55274 3.25832 7.42147 3.25832ZM0.337553 7.78715C0.271917 7.78715 0.234412 7.83872 0.220347 7.90436L0 9.57337L0.220347 11.2142C0.234412 11.2799 0.271917 11.3315 0.337553 11.3315C0.403188 11.3315 0.440694 11.2799 0.454758 11.2142L0.717299 9.57337L0.454758 7.90436C0.440694 7.83872 0.403188 7.78715 0.337553 7.78715ZM1.44398 6.76043C1.37834 6.76043 1.32677 6.812 1.32677 6.87763L1.02672 9.57337L1.32677 12.2035C1.32677 12.2832 1.37834 12.3347 1.44398 12.3347C1.50961 12.3347 1.56118 12.2832 1.57525 12.2175L1.9128 9.57337L1.57525 6.87763C1.56118 6.812 1.50961 6.76043 1.44398 6.76043ZM2.6301 6.22597C2.5504 6.22597 2.48476 6.29161 2.47539 6.38068L2.20347 9.57337L2.47539 12.6582C2.48945 12.7379 2.55509 12.8036 2.6301 12.8036C2.7098 12.8036 2.77543 12.7379 2.77543 12.6582L3.09892 9.57337L2.77543 6.38068C2.77543 6.29161 2.7098 6.22597 2.6301 6.22597ZM3.81622 6.12283C3.72714 6.12283 3.64744 6.18847 3.64744 6.29161L3.37553 9.57337L3.64744 12.752C3.64744 12.8551 3.72714 12.9208 3.81622 12.9208C3.9053 12.9208 3.985 12.8551 3.99906 12.752L4.29911 9.57337L3.99906 6.29161C3.985 6.18847 3.9053 6.12283 3.81622 6.12283ZM15.1336 0.923582C15.082 0.886076 15.0023 0.857946 14.9367 0.857946C14.8336 0.857946 14.7398 0.895452 14.6742 0.947023C14.5851 1.02672 14.5288 1.14393 14.5195 1.26113V1.29864L14.3647 9.58274L14.4444 11.1064L14.5241 12.5926C14.5382 12.8129 14.721 12.9958 14.9414 12.9958C15.1617 12.9958 15.3446 12.8129 15.3446 12.5926L15.5274 9.58274L15.3446 1.26113C15.3258 1.12049 15.2508 0.989217 15.1336 0.923582ZM13.8819 1.64088C13.8162 1.60338 13.7506 1.57525 13.6756 1.57525C13.6006 1.57525 13.5302 1.60338 13.4693 1.64088C13.3661 1.70652 13.3005 1.82372 13.3005 1.95499L13.2864 2.03469L13.1552 9.57337C13.1552 9.57337 13.1552 9.58743 13.3005 12.6488V12.6629C13.3005 12.7426 13.3286 12.8176 13.3802 12.8833C13.4599 12.9723 13.5631 13.0286 13.6803 13.0286C13.7834 13.0286 13.8772 12.977 13.9428 12.9114C14.0225 12.8458 14.06 12.7567 14.06 12.6488L14.0741 12.3347L14.2194 9.58743L14.0647 1.95499C14.0506 1.82372 13.985 1.70652 13.8819 1.64088ZM8.65916 2.69573C8.51383 2.69573 8.38725 2.827 8.38725 2.98171L8.18096 9.57337L8.38725 12.7239C8.40131 12.8786 8.51852 12.9958 8.65916 12.9958C8.81387 12.9958 8.93108 12.8786 8.94514 12.7239L9.17956 9.57337L8.94514 2.98171C8.93577 2.827 8.81856 2.69573 8.65916 2.69573ZM26.3197 5.63994C25.8134 5.63994 25.3305 5.74308 24.8851 5.92592C24.5851 2.60666 21.8003 0 18.4013 0C17.5668 0 16.7604 0.154712 16.0431 0.440694C15.7571 0.543835 15.6774 0.646976 15.6774 0.872011V12.5785C15.6774 12.8129 15.8603 12.9817 16.0806 13.0098H26.315C28.345 13.0098 30 11.369 30 9.33896C30.0047 7.29489 28.3497 5.63994 26.3197 5.63994ZM12.4097 2.81294C12.2128 2.81294 12.0581 2.96765 12.0441 3.17862L11.8894 9.58743L12.0441 12.6629C12.0581 12.8598 12.2128 13.0145 12.4097 13.0145C12.6067 13.0145 12.7614 12.8598 12.7614 12.6629L12.9442 9.58743L12.7614 3.17862C12.7473 2.96765 12.6067 2.81294 12.4097 2.81294ZM9.89686 2.44726C9.74214 2.44726 9.59681 2.59259 9.59681 2.76137L9.41397 9.57337L9.59681 12.7098C9.61087 12.8786 9.74214 13.0098 9.89686 13.0098C10.0656 13.0098 10.1969 12.8786 10.211 12.7098L10.4172 9.57337L10.211 2.76137C10.1969 2.59259 10.0656 2.44726 9.89686 2.44726ZM11.1486 2.60666C10.9658 2.60666 10.8251 2.75199 10.8251 2.93014L10.6423 9.57337L10.8251 12.6864C10.8392 12.8692 10.9705 13.0098 11.1486 13.0098C11.3268 13.0098 11.4721 12.8645 11.4721 12.6864L11.669 9.57337L11.4721 2.93014C11.4721 2.7473 11.3315 2.60666 11.1486 2.60666Z" fill="white"/>
</svg>
