<svg width="29" height="20" viewBox="0 0 29 20" fill="none" xmlns="http://www.w3.org/2000/svg">
<path d="M11.1834 11.2389L11.0083 3.72343C11.0083 3.48978 10.845 3.31116 10.6582 3.31116C10.4598 3.31116 10.308 3.48978 10.308 3.72343L10.1445 11.2389L10.308 14.8523C10.308 15.0859 10.4714 15.2645 10.6582 15.2645C10.8566 15.2645 11.0083 15.0859 11.0083 14.8523L11.1834 11.2389Z" fill="url(#paint0_linear_59_78)"/>
<path d="M9.92266 9.23898L9.72426 1.43485C9.72432 1.38431 9.71591 1.33426 9.6995 1.28757C9.6831 1.24087 9.65902 1.19844 9.62866 1.16272C9.5983 1.12699 9.56224 1.09867 9.52256 1.07938C9.48288 1.06009 9.44035 1.0502 9.39742 1.05029C9.35447 1.05018 9.31192 1.06006 9.27222 1.07935C9.23252 1.09864 9.19644 1.12697 9.16607 1.16272C9.13569 1.19846 9.11161 1.24091 9.0952 1.28763C9.0788 1.33435 9.07039 1.38443 9.07047 1.43498L8.89551 9.22533L9.07059 12.8662C9.07049 12.9167 9.07888 12.9668 9.09527 13.0135C9.11167 13.0603 9.13573 13.1027 9.1661 13.1385C9.19647 13.1742 9.23253 13.2026 9.27223 13.2219C9.31192 13.2412 9.35447 13.2511 9.39742 13.251C9.44038 13.2511 9.48294 13.2412 9.52265 13.2219C9.56236 13.2026 9.59844 13.1743 9.62882 13.1385C9.6592 13.1028 9.68328 13.0603 9.69968 13.0136C9.71607 12.9668 9.72447 12.9167 9.72437 12.8662L9.92266 9.23898Z" fill="url(#paint1_linear_59_78)"/>
<path d="M7.20215 1.48981C7.19043 1.31119 7.07371 1.16016 6.92207 1.16016C6.77031 1.16016 6.65348 1.29754 6.64188 1.48981L6.44336 9.22512L6.64188 12.921C6.64188 13.0996 6.77031 13.237 6.92195 13.237C7.07371 13.237 7.19055 13.0996 7.20215 12.9073L7.43559 9.21133L7.20215 1.48981Z" fill="url(#paint2_linear_59_78)"/>
<path d="M8.46363 1.22883C8.46363 1.03642 8.32359 0.871591 8.16012 0.871591C8.12018 0.871261 8.08059 0.880275 8.04364 0.898112C8.00668 0.915948 7.97311 0.94225 7.94487 0.975488C7.91663 1.00873 7.89429 1.04824 7.87913 1.09173C7.86398 1.13522 7.85632 1.18183 7.8566 1.22883L7.66992 9.22511L7.8566 12.8935C7.8566 13.0859 7.99676 13.2508 8.16012 13.2508C8.32359 13.2508 8.45191 13.0996 8.46363 12.8935L8.67375 9.22511L8.46363 1.22883Z" fill="url(#paint3_linear_59_78)"/>
<path d="M2.10176 13.1545C2.19516 13.1545 2.26523 13.0721 2.27684 12.9485L2.58035 9.2251L2.27684 5.3782C2.26512 5.26813 2.19516 5.172 2.10176 5.172C2.00836 5.172 1.9384 5.25448 1.92668 5.37807L1.6582 9.2251L1.92668 12.9485C1.92668 13.0721 2.00836 13.1545 2.10176 13.1545Z" fill="url(#paint4_linear_59_78)"/>
<path d="M12.4557 11.2389L12.2923 2.30825C12.2923 2.15708 12.2223 2.0197 12.1172 1.93722C12.0588 1.89598 11.9889 1.85474 11.9071 1.85474C11.8371 1.85474 11.767 1.88232 11.697 1.92356C11.592 2.00591 11.5219 2.14329 11.5219 2.29446V2.37694L11.3818 11.2252L11.5219 14.8111V14.8249C11.5219 14.9209 11.5569 15.0172 11.6153 15.0859C11.6854 15.182 11.7904 15.2507 11.9071 15.2507C12.0122 15.2507 12.1056 15.1958 12.1755 15.1271C12.2456 15.0447 12.2923 14.9347 12.2923 14.8111L12.304 14.4539L12.4557 11.2389Z" fill="url(#paint5_linear_59_78)"/>
<path d="M3.4907 5.65283C3.47898 5.51545 3.3973 5.41931 3.29219 5.41931C3.18719 5.41931 3.09379 5.51545 3.09379 5.65283L2.84863 9.22524L3.09379 12.976C3.10551 13.1134 3.18719 13.2095 3.29219 13.2095C3.3973 13.2095 3.4907 13.1134 3.4907 12.976L3.77078 9.22511L3.4907 5.65283Z" fill="url(#paint6_linear_59_78)"/>
<path d="M4.49422 3.15234C4.3775 3.15234 4.2725 3.26228 4.2725 3.41345L4.03906 9.22517L4.27238 12.9761C4.2841 13.1272 4.37738 13.237 4.4941 13.237C4.61082 13.237 4.71594 13.1272 4.71594 12.9761L4.98441 9.22517L4.71594 3.41345C4.71594 3.27607 4.61082 3.15234 4.4941 3.15234H4.49422Z" fill="url(#paint7_linear_59_78)"/>
<path d="M5.94141 12.976L6.18656 9.23889L5.94141 2.09434C5.92969 1.92951 5.82469 1.80579 5.68465 1.80579C5.54449 1.80579 5.43949 1.92951 5.42777 2.09434L5.20605 9.23889L5.42777 12.976C5.42777 13.1408 5.54449 13.2645 5.68465 13.2645C5.82469 13.2783 5.9298 13.1408 5.94141 12.976Z" fill="url(#paint8_linear_59_78)"/>
<path d="M13.3778 1.08543C13.3145 1.0402 13.2418 1.01639 13.1677 1.0166C13.0739 1.01741 12.9832 1.05623 12.9109 1.12653C12.8175 1.20902 12.7592 1.3464 12.7592 1.49757V1.55247L12.5957 11.2525L12.6775 13.0387L12.7592 14.7835C12.7592 15.0446 12.946 15.2507 13.1677 15.2507C13.3895 15.2507 13.5646 15.0308 13.5763 14.7698L13.7514 11.2388L13.5763 1.49757C13.5646 1.31895 13.4945 1.16791 13.3778 1.08543Z" fill="url(#paint9_linear_59_78)"/>
<path d="M0.910352 13.0173C0.992031 13.0173 1.05039 12.9486 1.06211 12.8387L1.37734 9.22517L1.06211 5.47427C1.05039 5.37814 0.992031 5.29565 0.910352 5.29565C0.828672 5.29565 0.770312 5.36434 0.758594 5.47427L0.478516 9.22517L0.758594 12.8387C0.770312 12.9348 0.828672 13.0173 0.910352 13.0173Z" fill="url(#paint10_linear_59_78)"/>
<path d="M24.5016 6.62234C23.9997 6.62234 23.5211 6.74607 23.0775 6.95214C22.7857 3.06386 20.0075 0 16.6223 0C15.8194 0.000716968 15.0236 0.17777 14.2759 0.522069C13.9959 0.645793 13.9258 0.783172 13.9258 1.03048V14.7561C13.9258 15.0172 14.1009 15.2233 14.3227 15.2508H24.5133C26.5444 15.2508 28.1904 13.341 28.1904 10.9503C28.1787 8.55972 26.5328 6.62234 24.5016 6.62234Z" fill="url(#paint11_linear_59_78)"/>
<path d="M1.22566 17.8613C0.793828 17.7377 0.677109 17.6827 0.677109 17.4766C0.677109 17.3392 0.770508 17.188 1.0623 17.188C1.30746 17.188 1.50586 17.3118 1.68105 17.5177L2.07785 17.0644C1.82098 16.7484 1.50586 16.556 1.08562 16.556C0.548672 16.556 0.116719 16.9133 0.116719 17.4904C0.116719 18.1224 0.466992 18.3147 0.968906 18.4384C1.48254 18.5758 1.57594 18.6719 1.57594 18.878C1.57594 19.1253 1.42418 19.2214 1.09734 19.2214C0.840469 19.2214 0.595312 19.1116 0.396914 18.8505L0 19.2627C0.210117 19.6199 0.607031 19.8398 1.05059 19.8398C1.79766 19.8398 2.11289 19.4276 2.11289 18.8231C2.13621 18.1498 1.6575 17.9712 1.22566 17.8613ZM3.73547 16.5698C2.9884 16.5698 2.55645 17.2429 2.55645 18.2185C2.55645 19.194 3 19.8672 3.73535 19.8672C4.47082 19.8672 4.91438 19.1941 4.91438 18.2185C4.91438 17.2431 4.47082 16.5698 3.73547 16.5698ZM3.73547 19.2215C3.2918 19.2215 3.11672 18.7818 3.11672 18.2047C3.11672 17.6278 3.30352 17.1882 3.73547 17.1882C4.17902 17.1882 4.35422 17.6278 4.35422 18.2047C4.35422 18.7818 4.1673 19.2215 3.73547 19.2215ZM7.10895 18.4109C7.10895 18.9192 6.89883 19.2352 6.54867 19.2352C6.19852 19.2352 5.9884 18.9055 5.9884 18.3971V16.6109H5.43973V18.4109C5.43973 19.3451 5.88328 19.8672 6.53695 19.8672C7.22566 19.8672 7.6343 19.3315 7.6343 18.4109V16.6247H7.08563V18.4109H7.10895ZM9.99223 17.9712C9.99223 18.1498 10.0039 18.5483 10.0039 18.6719C9.96879 18.5895 9.87551 18.4246 9.81715 18.3147L8.84824 16.6247H8.32301V19.8261H8.85996V18.4109C8.85996 18.2323 8.84824 17.8338 8.84824 17.7102C8.8834 17.7926 8.97668 17.9574 9.03504 18.0675L10.0273 19.8123H10.5176V16.6109H9.98051V17.9712H9.99223ZM12.0817 16.6111H11.2296V19.8123H12.035C12.7355 19.8123 13.4242 19.3315 13.4242 18.2185C13.4242 17.037 12.8522 16.6111 12.0817 16.6111ZM12.035 19.194H11.7666V17.2431H12.0584C12.6304 17.2431 12.8755 17.5727 12.8755 18.2185C12.8755 18.7956 12.607 19.194 12.035 19.194ZM15.1051 17.2018C15.3503 17.2018 15.5019 17.3254 15.607 17.5453L16.1089 17.2705C15.9339 16.8584 15.6304 16.556 15.1167 16.556C14.4047 16.556 13.9144 17.2293 13.9144 18.2047C13.9144 19.2078 14.393 19.8535 15.105 19.8535C15.5953 19.8535 15.9221 19.5788 16.1089 19.1253L15.6537 18.8094C15.5136 19.0978 15.3619 19.2215 15.1167 19.2215C14.7082 19.2215 14.4748 18.7818 14.4748 18.2047C14.4748 17.614 14.7082 17.2018 15.1051 17.2018ZM17.1245 16.6111H16.5759V19.8123H18.2101V19.1803H17.1245V16.6111ZM19.6459 16.5697C18.8988 16.5697 18.467 17.2431 18.467 18.2185C18.467 19.194 18.9105 19.8672 19.6459 19.8672C20.393 19.8672 20.8249 19.1941 20.8249 18.2185C20.8249 17.2431 20.3929 16.5697 19.6459 16.5697ZM19.6459 19.2215C19.2023 19.2215 19.0271 18.7818 19.0271 18.2047C19.0271 17.6278 19.2141 17.1882 19.6459 17.1882C20.0896 17.1882 20.2646 17.6278 20.2646 18.2047C20.2646 18.7818 20.0896 19.2215 19.6459 19.2215ZM23.0195 18.4109C23.0195 18.9192 22.8094 19.2352 22.4592 19.2352C22.1089 19.2352 21.8988 18.9055 21.8988 18.3971V16.6109H21.3503V18.4109C21.3503 19.3451 21.7938 19.8672 22.4475 19.8672C23.1362 19.8672 23.5447 19.3315 23.5447 18.4109V16.6247H22.9962V18.4109H23.0195ZM25.0972 16.6109H24.2452V19.8123H25.0506C25.751 19.8123 26.4397 19.3315 26.4397 18.2185C26.4397 17.037 25.8676 16.6109 25.0972 16.6109ZM25.0506 19.194H24.7938V17.2431H25.0856C25.6575 17.2431 25.8911 17.5727 25.8911 18.2185C25.8911 18.7956 25.6227 19.194 25.0506 19.194Z" fill="#F04923"/>
<defs>
<linearGradient id="paint0_linear_59_78" x1="61.796" y1="-327.809" x2="61.796" y2="1199.65" gradientUnits="userSpaceOnUse">
<stop stop-color="#F6871F"/>
<stop offset="0.2393" stop-color="#F57E20"/>
<stop offset="0.6262" stop-color="#F36621"/>
<stop offset="1" stop-color="#F04923"/>
</linearGradient>
<linearGradient id="paint1_linear_59_78" x1="60.4666" y1="-303.967" x2="60.4666" y2="1223.5" gradientUnits="userSpaceOnUse">
<stop stop-color="#F6871F"/>
<stop offset="0.2393" stop-color="#F57E20"/>
<stop offset="0.6262" stop-color="#F36621"/>
<stop offset="1" stop-color="#F04923"/>
</linearGradient>
<linearGradient id="paint2_linear_59_78" x1="56.0855" y1="-314.842" x2="56.0855" y2="1212.6" gradientUnits="userSpaceOnUse">
<stop stop-color="#F6871F"/>
<stop offset="0.2393" stop-color="#F57E20"/>
<stop offset="0.6262" stop-color="#F36621"/>
<stop offset="1" stop-color="#F04923"/>
</linearGradient>
<linearGradient id="paint3_linear_59_78" x1="57.7971" y1="-286.276" x2="57.7971" y2="1241.18" gradientUnits="userSpaceOnUse">
<stop stop-color="#F6871F"/>
<stop offset="0.2393" stop-color="#F57E20"/>
<stop offset="0.6262" stop-color="#F36621"/>
<stop offset="1" stop-color="#F04923"/>
</linearGradient>
<linearGradient id="paint4_linear_59_78" x1="47.3276" y1="-712.027" x2="47.3276" y2="815.44" gradientUnits="userSpaceOnUse">
<stop stop-color="#F6871F"/>
<stop offset="0.2393" stop-color="#F57E20"/>
<stop offset="0.6262" stop-color="#F36621"/>
<stop offset="1" stop-color="#F04923"/>
</linearGradient>
<linearGradient id="paint5_linear_59_78" x1="65.2393" y1="-183.626" x2="65.2393" y2="1343.85" gradientUnits="userSpaceOnUse">
<stop stop-color="#F6871F"/>
<stop offset="0.2393" stop-color="#F57E20"/>
<stop offset="0.6262" stop-color="#F36621"/>
<stop offset="1" stop-color="#F04923"/>
</linearGradient>
<linearGradient id="paint6_linear_59_78" x1="48.6416" y1="-736.504" x2="48.6416" y2="790.953" gradientUnits="userSpaceOnUse">
<stop stop-color="#F6871F"/>
<stop offset="0.2393" stop-color="#F57E20"/>
<stop offset="0.6262" stop-color="#F36621"/>
<stop offset="1" stop-color="#F04923"/>
</linearGradient>
<linearGradient id="paint7_linear_59_78" x1="50.9247" y1="-512.074" x2="50.9247" y2="1015.38" gradientUnits="userSpaceOnUse">
<stop stop-color="#F6871F"/>
<stop offset="0.2393" stop-color="#F57E20"/>
<stop offset="0.6262" stop-color="#F36621"/>
<stop offset="1" stop-color="#F04923"/>
</linearGradient>
<linearGradient id="paint8_linear_59_78" x1="54.6374" y1="-378.783" x2="54.6374" y2="1148.69" gradientUnits="userSpaceOnUse">
<stop stop-color="#F6871F"/>
<stop offset="0.2393" stop-color="#F57E20"/>
<stop offset="0.6262" stop-color="#F36621"/>
<stop offset="1" stop-color="#F04923"/>
</linearGradient>
<linearGradient id="paint9_linear_59_78" x1="70.4201" y1="-100.657" x2="70.4201" y2="1426.81" gradientUnits="userSpaceOnUse">
<stop stop-color="#F6871F"/>
<stop offset="0.2393" stop-color="#F57E20"/>
<stop offset="0.6262" stop-color="#F36621"/>
<stop offset="1" stop-color="#F04923"/>
</linearGradient>
<linearGradient id="paint10_linear_59_78" x1="45.7992" y1="-724.277" x2="45.7992" y2="803.205" gradientUnits="userSpaceOnUse">
<stop stop-color="#F6871F"/>
<stop offset="0.2393" stop-color="#F57E20"/>
<stop offset="0.6262" stop-color="#F36621"/>
<stop offset="1" stop-color="#F04923"/>
</linearGradient>
<linearGradient id="paint11_linear_59_78" x1="726.174" y1="0" x2="726.174" y2="1525.34" gradientUnits="userSpaceOnUse">
<stop stop-color="#F6871F"/>
<stop offset="0.2402" stop-color="#F57E20"/>
<stop offset="0.6306" stop-color="#F36621"/>
<stop offset="1" stop-color="#F04923"/>
</linearGradient>
</defs>
</svg>
