<svg width="31" height="21" viewBox="0 0 31 21" fill="none" xmlns="http://www.w3.org/2000/svg">
<path d="M29.4444 3.28848C29.2723 2.65287 28.9366 2.0734 28.4708 1.60779C28.005 1.14217 27.4253 0.806642 26.7893 0.634621C24.4613 0 15.0915 0 15.0915 0C15.0915 0 5.72125 0.0192096 3.39316 0.65383C2.75724 0.825862 2.17749 1.16141 1.71166 1.62705C1.24584 2.09269 0.910179 2.67217 0.738119 3.30781C0.0339276 7.44233 -0.239241 13.7424 0.757455 17.7115C0.929533 18.3471 1.2652 18.9266 1.73102 19.3922C2.19685 19.8578 2.77659 20.1934 3.4125 20.3654C5.74059 21 15.1106 21 15.1106 21C15.1106 21 24.4805 21 26.8084 20.3654C27.4444 20.1934 28.0241 19.8579 28.49 19.3922C28.9558 18.9266 29.2915 18.3471 29.4636 17.7115C30.2064 13.5711 30.4352 7.27495 29.4444 3.28848Z" fill="#FF0000"/>
<path d="M12.6826 15.7862L20.1798 10.4503L12.6826 5.1145V15.7862Z" fill="white"/>
</svg>
